<?xml version="1.0" encoding="UTF-8" standalone="no"?>
<!-- Created with Inkscape (http://www.inkscape.org/) -->

<svg
   xmlns:dc="http://purl.org/dc/elements/1.1/"
   xmlns:cc="http://creativecommons.org/ns#"
   xmlns:rdf="http://www.w3.org/1999/02/22-rdf-syntax-ns#"
   xmlns:svg="http://www.w3.org/2000/svg"
   xmlns="http://www.w3.org/2000/svg"
   xmlns:sodipodi="http://sodipodi.sourceforge.net/DTD/sodipodi-0.dtd"
   xmlns:inkscape="http://www.inkscape.org/namespaces/inkscape"
   width="210mm"
   height="297mm"
   id="svg3153"
   version="1.1"
   inkscape:version="0.48.2 r9819"
   sodipodi:docname="Documento nuevo 10">
  <defs
     id="defs3155" />
  <sodipodi:namedview
     id="base"
     pagecolor="#ffffff"
     bordercolor="#666666"
     borderopacity="1.0"
     inkscape:pageopacity="0.0"
     inkscape:pageshadow="2"
     inkscape:zoom="0.35"
     inkscape:cx="350"
     inkscape:cy="520"
     inkscape:document-units="px"
     inkscape:current-layer="layer1"
     showgrid="false"
     inkscape:window-width="1366"
     inkscape:window-height="746"
     inkscape:window-x="-8"
     inkscape:window-y="-8"
     inkscape:window-maximized="1" />
  <metadata
     id="metadata3158">
    <rdf:RDF>
      <cc:Work
         rdf:about="">
        <dc:format>image/svg+xml</dc:format>
        <dc:type
           rdf:resource="http://purl.org/dc/dcmitype/StillImage" />
        <dc:title></dc:title>
      </cc:Work>
    </rdf:RDF>
  </metadata>
  <g
     inkscape:label="Capa 1"
     inkscape:groupmode="layer"
     id="layer1">
    <path
       sodipodi:nodetypes="cccsccccscc"
       inkscape:connector-curvature="0"
       id="path2995"
       d="m 155.15802,746.78336 138.58581,0 0,-223.74004 c 0,0 -129.22455,-2.00669 -139.46966,-119.83043 -6.4497,-74.17475 50.24612,-115.02647 109.59583,-138.81633 1.38107,-74.0398 1.43176,-220.969067 2.65152,-252.472225 -85.39629,2.333317 -131.69176,28.63086 -131.69176,28.63086 l 66.2878,180.461255 c 0,0 -134.702915,46.13306 -129.040254,162.24159 6.110195,125.28472 142.297814,161.37398 142.297814,161.37398 z"
       style="fill:#000070;fill-opacity:1;stroke:none" />
    <path
       sodipodi:nodetypes="cccsccccscc"
       inkscape:connector-curvature="0"
       id="path5231"
       d="m 325.1773,746.78336 c 0,0 134.85033,0 193.61041,0 C 467.72119,645.01319 363.89939,440.4487 363.89939,440.4487 c 0,0 68.80405,-41.11969 67.97875,-121.32921 -0.67716,-65.81188 -72.28121,-107.56132 -72.28121,-107.56132 0,0 39.97025,-120.945511 59.17728,-178.167458 C 361.14563,6.4998833 293.33915,8.4823724 293.33915,8.4823724 L 292.47866,287.28134 c 0,0 -107.86075,20.48739 -105.84035,106.70083 2.39201,102.07057 139.39949,92.93304 139.39949,92.93304 z"
       style="fill:#ff6600;fill-opacity:1;stroke:none" />
    <path
       inkscape:export-ydpi="1233.5144"
       inkscape:export-xdpi="1233.5144"
       sodipodi:nodetypes="cccsccscc"
       inkscape:connector-curvature="0"
       id="path5233"
       d="m 557.39403,746.78336 115.93929,0 -186.49949,-252.12374 c 0,0 129.78995,-105.59818 118.74774,-222.00662 C 594.92135,160.27231 528.16783,88.839652 454.99564,49.785916 395.22315,199.70571 394.76131,200.37178 394.76131,200.37178 c 0,0 74.71462,52.68064 74.00217,128.21311 -0.67739,71.82033 -69.69972,110.14281 -69.69972,110.14281 z"
       style="fill:#000070;fill-opacity:1;stroke:none" />
    <path
       sodipodi:nodetypes="ccccc"
       inkscape:connector-curvature="0"
       id="path5239"
       d="m 130.7782,1041.9891 c 11.35562,0 44.74552,0 44.74552,0 0,0 -160.039037,-118.58192 4.30246,-265.03124 -20.32842,0 -46.46651,0 -46.46651,0 0,0 -137.8896073,123.9517 -2.58147,265.03124 z"
       style="fill:#000000;fill-opacity:1;stroke:none" />
    <path
       sodipodi:nodetypes="ccssccccscc"
       inkscape:connector-curvature="0"
       id="path5241"
       d="m 214.17401,776.9005 32.35722,5e-5 c 0,0 0,121.10342 0,213.40169 0,15.54666 0.8559,26.67526 25.57697,26.67526 23.80784,0 22.95193,-13.4688 22.95193,-26.67526 -0.65861,-91.87063 0,-213.40174 0,-213.40174 l 30.11717,0 c 0,0 1.77996,137.49416 0.35447,229.7511 0,22.6807 -30.47164,35.2801 -52.41069,35.2801 -26.58985,0 -59.31865,-11.8728 -59.80755,-36.1406 -0.28355,-100.73146 0.86048,-228.89055 0.86048,-228.89055 z"
       style="fill:#000000;fill-opacity:1;stroke:none" />
    <path
       sodipodi:nodetypes="ccccc"
       inkscape:connector-curvature="0"
       id="path5239-5"
       d="m 414.3663,1041.9317 c 11.35563,0 44.74551,0 44.74551,0 0,0 -160.03903,-118.58186 4.30243,-265.0312 -20.32838,0 -46.46647,0 -46.46647,0 0,0 -137.8896,123.95171 -2.58147,265.0312 z"
       style="fill:#000000;fill-opacity:1;stroke:none" />
    <path
       sodipodi:nodetypes="ccccc"
       inkscape:connector-curvature="0"
       id="path5261"
       d="m 638.30914,776.9005 34.98595,0 0,265.0312 -34.98595,0 z"
       style="fill:#000000;fill-opacity:1;stroke:none" />
    <path
       sodipodi:nodetypes="scccccccccccccccs"
       inkscape:connector-curvature="0"
       id="path5279"
       d="m 538.52164,1041.9317 c 22.37275,0 67.11825,0 67.11825,0 l 0,-24.9542 c -42.51866,0 -67.11825,0 -67.11825,-26.67526 l 67.11825,0 0,-19.79135 -67.11825,0 0,-160.91171 67.11825,0 0,-32.69868 -104.97985,0 0,193.61039 -43.88503,0 17.20981,19.79135 26.67522,0 0,26.67516 c 0,0 0,24.9542 37.8616,24.9542 z"
       style="fill:#000000;fill-opacity:1;stroke:none" />
  </g>
</svg>
